<svg height='100px' width='100px'  fill="#FF8400" xmlns="http://www.w3.org/2000/svg" xmlns:xlink="http://www.w3.org/1999/xlink" version="1.1" x="0px" y="0px" viewBox="0 0 100 100" enable-background="new 0 0 100 100" xml:space="preserve"><path d="M50,30.7c-10.6,0-19.3,8.7-19.3,19.3c0,10.6,8.7,19.3,19.3,19.3S69.3,60.6,69.3,50C69.3,39.4,60.6,30.7,50,30.7z M56.2,58.5  c-0.9,1.1-2.2,1.9-3.6,2.3c-0.6,0.2-0.9,0.5-0.9,1.1c0,0.6,0,1.3,0,1.9c0,0.6-0.3,0.9-0.8,0.9c-0.4,0-0.7,0-1.1,0c-0.3,0-0.6,0-1,0  c-0.6,0-0.9-0.3-0.9-0.9c0-0.5,0-0.9,0-1.4c0-1,0-1.1-1-1.2c-1.3-0.2-2.5-0.5-3.6-1c-0.9-0.4-1-0.7-0.7-1.6c0.2-0.7,0.4-1.4,0.6-2.1  c0.2-0.5,0.3-0.7,0.6-0.7c0.2,0,0.4,0.1,0.6,0.2c1.3,0.7,2.6,1,4,1.2c0.2,0,0.5,0,0.7,0c0.7,0,1.3-0.1,1.9-0.4  c1.6-0.7,1.8-2.5,0.5-3.6c-0.5-0.4-1-0.6-1.5-0.9c-1.4-0.6-2.8-1.1-4.1-1.9c-2.1-1.3-3.5-3-3.3-5.6c0.2-2.9,1.8-4.7,4.5-5.7  c1.1-0.4,1.1-0.4,1.1-1.5c0-0.4,0-0.8,0-1.2c0-0.9,0.2-1,1-1c0.1,0,0.2,0,0.3,0c0.2,0,0.3,0,0.5,0c0.1,0,0.1,0,0.2,0  c1.6,0,1.6,0.1,1.6,1.8c0,1.3,0,1.3,1.3,1.5c1,0.2,1.9,0.4,2.9,0.9c0.5,0.2,0.7,0.6,0.5,1.1c-0.2,0.8-0.4,1.6-0.7,2.4  c-0.2,0.5-0.3,0.7-0.6,0.7c-0.2,0-0.3-0.1-0.6-0.2c-1.3-0.6-2.6-0.9-4-0.9c-0.2,0-0.4,0-0.5,0c-0.4,0-0.8,0.1-1.2,0.2  c-1.4,0.6-1.6,2.1-0.4,3.1c0.6,0.5,1.3,0.8,2,1.1c1.2,0.5,2.4,1,3.6,1.6C57.8,50.7,58.7,55.3,56.2,58.5z M50,22.5  c-15.2,0-27.5,12.3-27.5,27.5c0,15.2,12.3,27.5,27.5,27.5c15.2,0,27.5-12.3,27.5-27.5C77.5,34.8,65.2,22.5,50,22.5z M50,73.2  c-12.8,0-23.2-10.4-23.2-23.2c0-12.8,10.4-23.2,23.2-23.2S73.2,37.2,73.2,50C73.2,62.8,62.8,73.2,50,73.2z"></path></svg>